<svg width="inherit" height="inherit" viewBox="0 0 11 23" fill="none" xmlns="http://www.w3.org/2000/svg">
<path d="M5.42564 0.510254L6.01077 1.60927C6.14232 1.81208 6.28484 1.99159 6.45271 2.15878C6.94485 2.64479 7.40359 3.1635 7.82579 3.71137C8.81723 5.0132 9.48596 6.45891 9.96353 8.02247C10.2499 8.9776 10.4055 9.9574 10.4171 10.9482C10.4651 13.9102 9.44965 16.4535 7.40235 18.5673C7.06934 18.9025 6.70958 19.21 6.32664 19.4868C6.12383 19.4868 6.0279 19.3312 5.94431 19.188C5.79208 18.9225 5.69077 18.6309 5.64558 18.3281C5.57363 17.9698 5.52636 17.6114 5.54965 17.2415V17.0743C5.53321 17.0386 5.35438 0.59453 5.42564 0.510254V0.510254Z" fill="#599636"/>
<path d="M5.42569 0.474011C5.4017 0.426049 5.37772 0.462363 5.35374 0.485659C5.36539 0.725469 5.2818 0.939243 5.15093 1.14342C5.00705 1.34623 4.81657 1.50177 4.62541 1.66895C3.56339 2.58845 2.72748 3.69911 2.05807 4.94133C1.16735 6.61315 0.708281 8.40487 0.578099 10.2911C0.518489 10.9715 0.793243 13.3724 1.0077 14.0651C1.59284 15.9041 2.64389 17.445 4.00533 18.7825C4.33969 19.1045 4.69735 19.4032 5.06734 19.6903C5.17491 19.6903 5.18656 19.5944 5.21123 19.5231C5.25839 19.3707 5.29434 19.2149 5.3188 19.0572L5.55861 17.2662L5.42569 0.474011Z" fill="#6CAC48"/>
<path d="M6.01086 20.2145C6.03484 19.9404 6.16639 19.7129 6.3096 19.4862C6.16571 19.4265 6.05882 19.308 5.97523 19.1758C5.90315 19.0506 5.84349 18.9186 5.79709 18.7818C5.62991 18.2803 5.59428 17.754 5.54632 17.2415V16.9312C5.48671 16.9791 5.47437 17.3847 5.47437 17.445C5.43951 17.9867 5.36763 18.5254 5.25923 19.0572C5.2236 19.2724 5.19962 19.4868 5.06738 19.678C5.06738 19.702 5.06738 19.726 5.07903 19.7616C5.29417 20.3947 5.3531 21.0394 5.38941 21.6965V21.9363C5.38941 22.2227 5.37776 22.1624 5.61552 22.2584C5.71144 22.294 5.81833 22.3063 5.91425 22.3776C5.9862 22.3776 5.99784 22.318 5.99784 22.27L5.96221 21.876V20.777C5.95057 20.5852 5.9862 20.3947 6.01018 20.2152L6.01086 20.2145Z" fill="#C2BFBF"/>
</svg>
